<?xml version="1.0" encoding="utf-8"?>
<!-- Generator: Adobe Illustrator 16.0.0, SVG Export Plug-In . SVG Version: 6.00 Build 0)  -->
<!DOCTYPE svg PUBLIC "-//W3C//DTD SVG 1.1//EN" "http://www.w3.org/Graphics/SVG/1.1/DTD/svg11.dtd">
<svg version="1.1" xmlns="http://www.w3.org/2000/svg" xmlns:xlink="http://www.w3.org/1999/xlink" x="0px" y="0px" width="1200px"
	 height="378.978px" viewBox="0 0 1200 378.978" enable-background="new 0 0 1200 378.978" xml:space="preserve">
<g id="Background">
	<linearGradient id="SVGID_1_" gradientUnits="userSpaceOnUse" x1="513.3062" y1="890.6895" x2="686.6942" y2="-90.6899">
		<stop  offset="3.197300e-004" style="stop-color:#F5F5F5"/>
		<stop  offset="0.9385" style="stop-color:#E8F5FF"/>
	</linearGradient>
	<rect fill="url(#SVGID_1_)" width="1200" height="800"/>
</g>
<g id="Graphic_Elements">
	<g>
		<defs>
			<rect id="SVGID_2_" width="1200" height="800"/>
		</defs>
		<clipPath id="SVGID_3_">
			<use xlink:href="#SVGID_2_"  overflow="visible"/>
		</clipPath>
		<g clip-path="url(#SVGID_3_)">
			<g>
				<g>
					<g>
						<linearGradient id="SVGID_4_" gradientUnits="userSpaceOnUse" x1="-12.7334" y1="340.9082" x2="1190.4893" y2="340.9082">
							<stop  offset="0.0614" style="stop-color:#ABE1FF"/>
							<stop  offset="1" style="stop-color:#D7EDFD;stop-opacity:0"/>
						</linearGradient>
						<path fill="url(#SVGID_4_)" d="M1189.772,395.938c-0.22-0.226-22.467-22.853-66.854-47.268
							c-40.967-22.533-109.708-51.239-204.547-60.03c-104.272-9.668-184.306,22.185-261.704,52.987
							c-58.313,23.207-118.609,47.204-187.742,52.143c-116.727,8.333-212.014-16.073-281.59-33.896
							c-25.663-6.573-47.825-12.251-66.155-15.01c-64.312-9.678-132.97,8.325-133.656,8.509l-0.258-0.967
							c0.688-0.184,69.542-18.242,134.063-8.53c18.379,2.766,40.565,8.449,66.254,15.03c69.51,17.806,164.708,42.193,281.271,33.866
							c68.979-4.927,129.202-28.895,187.443-52.073c77.507-30.847,157.645-62.739,262.166-53.055
							c95.034,8.81,163.923,37.585,204.979,60.173c44.503,24.485,66.826,47.197,67.047,47.424L1189.772,395.938z"/>
					</g>
					<g>
						<linearGradient id="SVGID_5_" gradientUnits="userSpaceOnUse" x1="-10.5767" y1="363.9629" x2="1192.9434" y2="363.9629">
							<stop  offset="0.0614" style="stop-color:#ABE1FF"/>
							<stop  offset="1" style="stop-color:#D7EDFD;stop-opacity:0"/>
						</linearGradient>
						<path fill="url(#SVGID_5_)" d="M1192.266,416.879c-3.906-3.604-97.68-88.458-273.211-103.494
							c-28.2-2.312-56.26-1.624-83.399,2.04c-58.995,7.967-113.136,27.136-165.494,45.673
							c-63.585,22.512-129.334,45.79-202.029,47.626c-23.619,0.593-48.026-0.463-74.622-3.236
							c-69.954-7.292-132.375-23.079-182.533-35.764c-34.04-8.609-63.438-16.044-87.781-19.145
							c-60.233-7.67-126.417,7.871-133.366,10.972l-0.407-0.914c6.985-3.116,73.471-18.748,133.899-11.05
							c24.404,3.108,53.829,10.55,87.901,19.167c50.125,12.677,112.509,28.454,182.391,35.739
							c26.552,2.769,50.918,3.824,74.493,3.23c72.536-1.832,135.287-24.048,201.72-47.569
							c52.406-18.554,106.597-37.739,165.693-45.72c27.21-3.676,55.343-4.364,83.618-2.046
							c175.87,15.064,269.889,100.142,273.805,103.756L1192.266,416.879z"/>
					</g>
					<g>
						<linearGradient id="SVGID_6_" gradientUnits="userSpaceOnUse" x1="-8.3452" y1="386.9482" x2="1195.417" y2="386.9482">
							<stop  offset="0.0614" style="stop-color:#ABE1FF"/>
							<stop  offset="1" style="stop-color:#D7EDFD;stop-opacity:0"/>
						</linearGradient>
						<path fill="url(#SVGID_6_)" d="M1194.739,437.801c-0.933-0.86-101.072-86.688-274.998-99.671
							c-28.176-2.103-56.22-0.995-83.359,3.29c-51.255,8.094-100.787,23.721-148.688,38.834
							c-67.834,21.402-137.904,43.508-212.235,43.51c-2.704,0-5.405-0.029-8.12-0.089c-22.755-0.499-46.814-2.973-73.554-7.562
							c-54.821-9.409-105.476-22.554-150.167-34.15c-45.886-11.907-85.515-22.19-118.406-25.67
							c-61.555-6.507-124.34,9.529-133.15,13.461l-0.407-0.914c8.853-3.949,71.905-20.077,133.663-13.541
							c32.965,3.487,72.627,13.779,118.552,25.696c44.672,11.592,95.305,24.73,150.084,34.132c26.69,4.581,50.702,7.05,73.407,7.548
							c77.2,1.706,149.809-21.219,220.033-43.374c47.936-15.124,97.503-30.764,148.832-38.869c27.218-4.298,55.344-5.406,83.59-3.3
							c174.259,13.008,274.667,99.071,275.602,99.935L1194.739,437.801z"/>
					</g>
					<g>
						<linearGradient id="SVGID_7_" gradientUnits="userSpaceOnUse" x1="-6.1143" y1="409.3496" x2="1197.8916" y2="409.3496">
							<stop  offset="0.0614" style="stop-color:#ABE1FF"/>
							<stop  offset="1" style="stop-color:#D7EDFD;stop-opacity:0"/>
						</linearGradient>
						<path fill="url(#SVGID_7_)" d="M1197.214,458.723c-3.521-3.25-31.673-24.416-80.458-46.545
							c-42.877-19.449-111.743-43.791-196.328-49.303c-28.493-1.858-56.524-0.33-83.318,4.539
							c-42.288,7.685-85.079,19.814-126.461,31.545c-78.956,22.381-160.598,45.523-244.104,39.666
							c-22.806-1.601-45.839-5.379-72.486-11.891c-36.206-8.847-70.609-18.51-103.88-27.855
							c-63.03-17.703-117.464-32.992-162.95-36.872c-57.317-4.889-118.32,9.431-132.935,15.951l-0.407-0.914
							c15.181-6.772,75.133-21.006,133.427-16.033c45.581,3.888,100.057,19.188,163.136,36.906
							c33.263,9.343,67.658,19.003,103.847,27.847c26.591,6.497,49.571,10.268,72.319,11.863
							c83.325,5.846,164.887-17.272,243.761-39.631c41.404-11.736,84.22-23.873,126.554-31.566
							c26.874-4.883,54.991-6.414,83.563-4.553c84.736,5.521,153.724,29.906,196.677,49.39
							c48.906,22.185,77.182,43.453,80.723,46.722L1197.214,458.723z"/>
					</g>
					<g>
						<linearGradient id="SVGID_8_" gradientUnits="userSpaceOnUse" x1="-3.8828" y1="422.8867" x2="1200.3652" y2="422.8867">
							<stop  offset="0.0614" style="stop-color:#ABE1FF"/>
							<stop  offset="1" style="stop-color:#D7EDFD;stop-opacity:0"/>
						</linearGradient>
						<path fill="url(#SVGID_8_)" d="M1199.688,479.645c-5.249-4.845-36.366-25.636-85.007-46.245
							c-43.43-18.401-112.266-41.281-193.567-45.78c-28.919-1.599-56.938,0.348-83.276,5.788
							c-31.561,6.521-63.168,14.73-96.631,23.423c-90.297,23.457-183.669,47.711-275.455,36.743
							c-22.67-2.708-46.032-8.014-71.42-16.219c-11.928-3.854-23.768-7.726-35.498-11.561
							c-84.654-27.676-164.613-53.816-229.59-58.073C72.932,364.029,15.017,377.91-3.476,386.162l-0.407-0.914
							c22.328-9.962,81.036-21.939,133.191-18.525c65.103,4.266,145.12,30.425,229.836,58.121
							c11.729,3.834,23.568,7.705,35.494,11.56c25.326,8.185,48.626,13.477,71.231,16.178
							c91.605,10.941,184.879-13.286,275.085-36.719c33.475-8.695,65.094-16.909,96.679-23.434
							c26.423-5.459,54.528-7.417,83.534-5.808c81.447,4.507,150.4,27.425,193.902,45.857
							c48.763,20.661,80.014,41.556,85.295,46.432L1199.688,479.645z"/>
					</g>
					<g>
						<linearGradient id="SVGID_9_" gradientUnits="userSpaceOnUse" x1="-1.6514" y1="436.3477" x2="1202.8389" y2="436.3477">
							<stop  offset="0.0614" style="stop-color:#ABE1FF"/>
							<stop  offset="1" style="stop-color:#D7EDFD;stop-opacity:0"/>
						</linearGradient>
						<path fill="url(#SVGID_9_)" d="M1202.161,500.566c-6.75-6.229-40.99-26.738-89.558-45.915
							c-43.936-17.348-112.702-38.766-190.804-42.287c-29.451-1.324-57.454,1.04-83.235,7.037
							c-17.882,4.159-36.005,8.658-55.192,13.421c-100.668,24.991-214.768,53.317-318.415,35.7
							c-23.161-3.937-46.174-10.659-70.355-20.552c-89.276-36.523-182.97-70.831-263.344-74.537
							c-50.383-2.316-105.873,9.051-132.502,20.932l-0.407-0.914c26.734-11.927,82.416-23.354,132.955-21.016
							c80.526,3.712,174.317,38.053,263.677,74.609c24.112,9.865,47.057,16.567,70.144,20.491
							c103.441,17.58,217.434-10.718,318.006-35.684c19.191-4.765,37.317-9.265,55.207-13.426
							c25.871-6.018,53.969-8.396,83.507-7.061c78.239,3.526,147.12,24.979,191.126,42.355
							c48.688,19.225,83.073,39.838,89.868,46.11L1202.161,500.566z"/>
					</g>
					<g>
						<linearGradient id="SVGID_10_" gradientUnits="userSpaceOnUse" x1="0.5801" y1="449.7637" x2="1205.3125" y2="449.7637">
							<stop  offset="0.0614" style="stop-color:#ABE1FF"/>
							<stop  offset="1" style="stop-color:#D7EDFD;stop-opacity:0"/>
						</linearGradient>
						<path fill="url(#SVGID_10_)" d="M1204.635,521.488c-6.91-6.378-41.609-26.289-94.11-45.555
							c-44.391-16.29-113.048-36.249-188.039-38.824c-30.069-1.032-58.062,1.755-83.191,8.285
							c-76.256,19.816-182.173,47.34-282.809,47.342c-31.661,0.001-62.792-2.723-92.321-9.268
							c-23.524-5.214-46.837-13.586-69.29-24.885c-100.879-50.765-188.895-77.491-261.602-79.437
							c-52.007-1.392-103.908,10.76-132.285,23.422l-0.407-0.914c28.48-12.706,80.571-24.896,132.719-23.508
							c72.855,1.949,161.013,28.712,262.024,79.544c22.379,11.261,45.613,19.605,69.057,24.801
							c123.154,27.293,274.509-12.039,374.662-38.066c25.223-6.555,53.304-9.348,83.479-8.316
							c75.122,2.58,143.889,22.57,188.349,38.885c52.633,19.314,87.482,39.334,94.443,45.76L1204.635,521.488z"/>
					</g>
					<g>
						<linearGradient id="SVGID_11_" gradientUnits="userSpaceOnUse" x1="2.811" y1="463.1309" x2="1207.7871" y2="463.1309">
							<stop  offset="0.0614" style="stop-color:#ABE1FF"/>
							<stop  offset="1" style="stop-color:#D7EDFD;stop-opacity:0"/>
						</linearGradient>
						<path fill="url(#SVGID_11_)" d="M1207.109,542.41c-8.038-7.419-44.954-26.904-98.664-45.165
							c-44.795-15.23-113.3-33.733-185.272-35.392c-30.797-0.71-58.77,2.498-83.15,9.534
							c-63.265,18.255-126.659,31.085-183.33,37.104c-74.936,7.958-139.98,4.568-193.323-10.077
							c-24.334-6.682-47.289-16.513-68.223-29.22c-62.722-38.073-158.718-83.609-259.859-84.334
							c-44.931-0.322-95.522,9.606-132.069,25.913l-0.407-0.914c36.669-16.36,87.438-26.343,132.483-25.999
							c101.369,0.727,197.542,46.341,260.371,84.479c20.856,12.66,43.724,22.454,67.969,29.11
							c53.222,14.613,118.14,17.992,192.953,10.048c56.613-6.013,119.948-18.831,183.158-37.07
							c24.479-7.064,52.559-10.282,83.451-9.573c72.099,1.661,140.71,20.191,185.571,35.444
							c54.443,18.511,90.679,37.679,99.02,45.378L1207.109,542.41z"/>
					</g>
					<g>
						<linearGradient id="SVGID_12_" gradientUnits="userSpaceOnUse" x1="5.0425" y1="476.4395" x2="1210.2607" y2="476.4395">
							<stop  offset="0.0614" style="stop-color:#ABE1FF"/>
							<stop  offset="1" style="stop-color:#D7EDFD;stop-opacity:0"/>
						</linearGradient>
						<path fill="url(#SVGID_12_)" d="M1209.583,563.332c-20.74-19.145-161.226-75.358-285.724-76.733
							c-31.595-0.345-59.57,3.278-83.107,10.781c-55.786,17.783-120.884,30.003-183.304,34.408
							c-74.773,5.277-142.157-1.097-194.873-18.431c-25.207-8.287-47.801-19.577-67.156-33.557
							c-79.826-57.652-169.78-89.256-253.798-89.256c-1.445,0-2.878,0.01-4.319,0.028C92.015,391.16,45.188,401.247,5.45,418.977
							l-0.407-0.914c39.86-17.783,86.826-27.901,132.247-28.489c85.463-1.092,177.344,30.648,258.716,89.417
							c19.271,13.919,41.773,25.162,66.882,33.418c111.336,36.609,269.852,18.353,377.559-15.981
							c23.641-7.535,51.703-11.189,83.424-10.828c124.73,1.378,265.577,57.787,286.39,76.999L1209.583,563.332z"/>
					</g>
					<g>
						<linearGradient id="SVGID_13_" gradientUnits="userSpaceOnUse" x1="7.2739" y1="489.6748" x2="1212.7344" y2="489.6748">
							<stop  offset="0.0614" style="stop-color:#ABE1FF"/>
							<stop  offset="1" style="stop-color:#D7EDFD;stop-opacity:0"/>
						</linearGradient>
						<path fill="url(#SVGID_13_)" d="M1212.057,584.254c-14.482-13.368-78.916-38.939-151.752-55.699
							c-52.683-12.123-151.164-28.914-218.823-5.184c-62.586,21.951-150.159,34.146-228.559,31.837
							c-44.558-1.315-85.186-7.007-120.754-16.916c-39.663-11.05-72.121-27.16-96.473-47.886
							c-53.138-45.225-115.142-75.662-179.308-88.021c-34.101-6.568-68.66-8.002-102.716-4.257
							c-35.988,3.956-71.648,13.73-105.991,29.053l-0.407-0.914c34.437-15.364,70.198-25.166,106.289-29.133
							c34.155-3.754,68.816-2.317,103.015,4.269c64.335,12.393,126.498,42.906,179.767,88.242
							c24.241,20.631,56.571,36.674,96.093,47.685c35.491,9.888,76.038,15.566,120.516,16.879
							c78.269,2.314,165.718-9.867,228.197-31.78c67.899-23.813,166.593-6.994,219.378,5.152
							c72.991,16.795,137.63,42.484,152.206,55.939L1212.057,584.254z"/>
					</g>
				</g>
				<linearGradient id="SVGID_14_" gradientUnits="userSpaceOnUse" x1="600.0005" y1="598.54" x2="600.0005" y2="370.4058">
					<stop  offset="0.061" style="stop-color:#004BBA"/>
					<stop  offset="1" style="stop-color:#D7EDFD;stop-opacity:0"/>
				</linearGradient>
				<path fill="url(#SVGID_14_)" d="M1202.459,555.581c-136.69-126.176-389.175-43.322-545.461-36.038
					C414.456,530.847,239.896,290.29-2.459,398.418V598.54h1204.918V555.581z"/>
				<linearGradient id="SVGID_15_" gradientUnits="userSpaceOnUse" x1="404.3257" y1="853.7305" x2="1186.4941" y2="853.7305">
					<stop  offset="0" style="stop-color:#D7EDFD;stop-opacity:0"/>
					<stop  offset="0.9385" style="stop-color:#3C90D6"/>
				</linearGradient>
				<path fill="url(#SVGID_15_)" d="M1186.47,1065c-9.123-4.839-18.554-9.087-28.184-12.812
					c-10.315-3.989-20.856-7.382-31.525-10.291c-11.741-3.201-23.638-5.82-35.608-8c-13.261-2.414-26.616-4.29-40.011-5.776
					c-14.906-1.654-29.863-2.827-44.837-3.661c-16.681-0.929-33.383-1.437-50.088-1.652c-18.587-0.24-37.178-0.119-55.763,0.248
					c-20.628,0.409-41.25,1.122-61.862,2.042c-22.807,1.018-45.603,2.288-68.387,3.727c-25.124,1.587-50.234,3.379-75.335,5.305
					c-23.132,1.775-46.317,2.89-69.521,2.957c-19.19,0.056-38.394-0.584-57.517-2.222c-15.597-1.337-31.149-3.336-46.526-6.282
					c-12.527-2.399-24.947-5.428-37.091-9.338c-9.643-3.104-19.12-6.767-28.242-11.181c-7.253-3.509-14.288-7.495-20.912-12.089
					c-5.093-3.531-9.948-7.425-14.396-11.744c-3.336-3.24-6.45-6.722-9.203-10.473c-1.855-2.528-3.555-5.182-4.989-7.973
					c-0.744-1.447-1.44-2.938-1.962-4.482c-0.065-0.193-0.128-0.387-0.185-0.582c0.852,1.253,1.821,2.432,2.802,3.583
					c2.757,3.235,5.792,6.234,8.969,9.057c5.002,4.445,10.394,8.449,16.022,12.064c7.63,4.899,15.71,9.085,24.049,12.64
					c10.563,4.503,21.544,7.995,32.712,10.643c14.003,3.32,28.304,5.318,42.657,6.295c17.639,1.2,35.367,0.863,52.981-0.584
					c21.807-1.793,43.458-5.286,64.828-9.947c25.999-5.672,51.606-13.078,76.792-21.649c26.115-8.888,51.813-18.994,76.963-30.331
					c22.852-10.301,45.255-21.594,67.16-33.779c20.852-11.6,41.253-24.007,61.175-37.139c18.827-12.412,37.227-25.471,55.181-39.115
					c16.57-12.594,32.761-25.687,48.557-39.238c14.451-12.396,28.572-25.177,42.348-38.319
					c12.097-11.54,23.928-23.359,35.473-35.451c9.833-10.299,19.46-20.796,28.854-31.497c7.416-8.447,14.688-17.022,21.783-25.74
					c4.979-6.117,9.873-12.303,14.645-18.583c2.492-3.28,4.958-6.582,7.35-9.937c0.292-0.409,0.582-0.818,0.869-1.23L1186.47,1065z"
					/>
				<linearGradient id="SVGID_16_" gradientUnits="userSpaceOnUse" x1="0" y1="252.9771" x2="801.7588" y2="252.9771">
					<stop  offset="0.0614" style="stop-color:#ABE1FF"/>
					<stop  offset="1" style="stop-color:#D7EDFD;stop-opacity:0"/>
				</linearGradient>
				<path fill="url(#SVGID_16_)" d="M0,153.346c141.363-16.649,283.913,29.355,400.052,107.986
					c130.077,88.069,277.145,94.518,401.707-9.027c-62.006,105.845-259.61,130.546-359.62,74.626
					c-52.564-29.392-93.893-75.673-145.812-106.423c-89.599-53.067-194-63.952-296.327-57.332V153.346z"/>
			</g>
			<g>
				<linearGradient id="SVGID_17_" gradientUnits="userSpaceOnUse" x1="600" y1="135.7974" x2="600" y2="-39.6699">
					<stop  offset="0" style="stop-color:#D7EDFD;stop-opacity:0"/>
					<stop  offset="0.9389" style="stop-color:#3087CF"/>
				</linearGradient>
				<path fill="url(#SVGID_17_)" d="M-2.295,91.952c134.97-55.992,295.708-68.175,438.127-40.449
					c171.88,33.461,337.948,105.087,516.64,78.463c78.729-11.73,176.176-41.719,249.823,5.831V-39.67H-2.295V91.952z"/>
				<linearGradient id="SVGID_18_" gradientUnits="userSpaceOnUse" x1="-9.4761" y1="155.8252" x2="829.9805" y2="155.8252">
					<stop  offset="0.0614" style="stop-color:#168EF7"/>
					<stop  offset="1" style="stop-color:#D7EDFD;stop-opacity:0"/>
				</linearGradient>
				<path fill="url(#SVGID_18_)" d="M829.614,135.641c-21.8,7.969-45.469,12.943-69.29,16.134
					c-25.493,3.415-51.492,4.779-77.375,4.368c-24.438-0.389-48.965-2.33-72.777-6.535c-29.675-5.24-58.687-12.404-87.428-19.968
					c-28.8-7.579-57.392-15.607-86.406-22.723c-28.771-7.056-57.991-13.023-87.673-17.515c-29.672-4.491-59.739-7.566-89.954-9.014
					c-30.108-1.443-60.368-1.266-90.422,0.756c-29.48,1.983-58.881,5.666-87.456,11.486c-26.267,5.351-52.127,12.834-74.667,24.432
					c-5.45,2.804-10.686,5.843-15.642,9.121c34.567-4.449,69.656-6.605,104.728-6.557c35.087,0.048,70.114,2.344,104.702,6.737
					c33.898,4.306,67.747,9.614,100.088,18.508c28.658,7.882,55.834,18.422,82.57,29.379c26.7,10.942,53.08,22.37,80.547,32.223
					c26.853,9.633,54.88,17.743,84.19,22.007c26.614,3.872,53.996,4.651,80.963,2.681c27.081-1.979,53.825-6.733,79.155-14.181
					c25.159-7.397,48.978-17.485,69.976-30.254c9.911-6.027,18.802-12.737,27.576-19.661c8.135-6.419,16.893-13.079,22.1-21.129
					C829.146,142.802,830.724,139.139,829.614,135.641z"/>
				<g>
					<g>
						<linearGradient id="SVGID_19_" gradientUnits="userSpaceOnUse" x1="277.6006" y1="167.2988" x2="1274.4492" y2="167.2988">
							<stop  offset="0" style="stop-color:#D7EDFD;stop-opacity:0"/>
							<stop  offset="0.9382" style="stop-color:#19ADFF"/>
						</linearGradient>
						<path fill="url(#SVGID_19_)" d="M1274.223,355.751c-113.964-26.561-222.631-79.076-314.253-151.868
							c-12.636-10.039-25.177-20.639-37.305-30.89c-23.32-19.712-47.436-40.096-73.227-57.325
							c-45.795-30.59-90.044-45.78-131.517-45.201c-23.856,0.343-47.563,5.969-70.487,11.41
							c-10.208,2.422-20.764,4.928-31.208,6.938c-59.622,11.48-122.917,7.291-183.038-12.111
							C373.068,57.301,319.267,23.7,277.601-20.467l0.728-0.687c41.551,44.045,95.207,77.555,155.167,96.906
							c59.961,19.351,123.082,23.528,182.542,12.081c10.424-2.006,20.969-4.509,31.166-6.929
							c22.978-5.453,46.738-11.091,70.705-11.437c41.696-0.582,86.121,14.665,132.085,45.37
							c25.839,17.261,49.976,37.663,73.317,57.393c12.122,10.247,24.657,20.842,37.28,30.871
							c91.508,72.701,200.038,125.15,313.858,151.678L1274.223,355.751z"/>
					</g>
					<g>
						<linearGradient id="SVGID_20_" gradientUnits="userSpaceOnUse" x1="278.5737" y1="155.8247" x2="1274.75" y2="155.8247">
							<stop  offset="0" style="stop-color:#D7EDFD;stop-opacity:0"/>
							<stop  offset="0.9382" style="stop-color:#19ADFF"/>
						</linearGradient>
						<path fill="url(#SVGID_20_)" d="M1274.51,340.043c-114.131-28.233-222.755-79.464-314.131-148.154
							c-12.649-9.515-25.223-19.548-37.381-29.251c-14.604-11.653-29.703-23.703-45.012-34.913
							c-10.317-7.554-19.83-14.073-29.08-19.932c-45.999-29.141-90.213-43.703-131.454-43.289
							c-23.581,0.237-47.026,5.388-69.699,10.37c-10.357,2.276-21.067,4.629-31.657,6.485
							c-56.761,9.938-116.851,5.86-173.776-11.791c-30.242-9.374-59.834-22.637-87.956-39.423
							c-28.042-16.737-53.541-36.191-75.79-57.824l0.697-0.717c22.193,21.579,47.631,40.986,75.605,57.683
							c28.053,16.745,57.573,29.976,87.739,39.326c56.775,17.604,116.704,21.67,173.307,11.76
							c10.569-1.852,21.269-4.203,31.615-6.477c22.723-4.992,46.22-10.155,69.904-10.393c41.461-0.421,85.835,14.198,131.999,43.444
							c9.269,5.871,18.8,12.403,29.136,19.97c15.325,11.222,30.434,23.278,45.044,34.938c12.153,9.698,24.721,19.727,37.359,29.233
							c91.269,68.609,199.769,119.781,313.77,147.982L1274.51,340.043z"/>
					</g>
					<g>
						<linearGradient id="SVGID_21_" gradientUnits="userSpaceOnUse" x1="279.5488" y1="144.3496" x2="1275.0498" y2="144.3496">
							<stop  offset="0" style="stop-color:#D7EDFD;stop-opacity:0"/>
							<stop  offset="0.9382" style="stop-color:#19ADFF"/>
						</linearGradient>
						<path fill="url(#SVGID_21_)" d="M1274.796,324.335c-114.577-30.012-223.158-79.958-314.005-144.438
							c-12.644-8.984-25.227-18.442-37.396-27.589c-14.854-11.165-30.213-22.71-45.75-33.441
							c-10.379-7.167-19.953-13.364-29.271-18.945c-46.203-27.692-90.398-41.632-131.394-41.377
							c-23.282,0.133-46.443,4.812-68.842,9.337c-10.529,2.127-21.417,4.327-32.176,6.025c-56.75,8.94-116.466,4.097-172.691-14.008
							c-29.203-9.396-58.611-22.751-87.408-39.693c-27.551-16.209-53.941-35.26-76.316-55.091l0.663-0.748
							c22.328,19.79,48.664,38.8,76.16,54.978c28.734,16.904,58.075,30.229,87.208,39.603
							c56.076,18.057,115.631,22.89,172.229,13.972c10.737-1.695,21.614-3.893,32.133-6.018c22.445-4.534,45.655-9.223,69.034-9.356
							c41.215-0.263,85.552,13.732,131.913,41.52c9.336,5.593,18.929,11.801,29.325,18.98
							c15.554,10.743,30.921,22.294,45.782,33.465c12.164,9.143,24.741,18.597,37.374,27.573
							c90.749,64.411,199.218,114.305,313.68,144.286L1274.796,324.335z"/>
					</g>
					<g>
						<linearGradient id="SVGID_22_" gradientUnits="userSpaceOnUse" x1="280.5254" y1="132.875" x2="1275.3496" y2="132.875">
							<stop  offset="0" style="stop-color:#D7EDFD;stop-opacity:0"/>
							<stop  offset="0.9382" style="stop-color:#19ADFF"/>
						</linearGradient>
						<path fill="url(#SVGID_22_)" d="M1275.082,308.626c-115.42-31.945-223.958-80.606-313.881-140.723
							c-12.61-8.446-25.179-17.322-37.334-25.906c-15.128-10.684-30.771-21.732-46.563-31.993
							c-10.457-6.792-20.094-12.666-29.462-17.958c-46.403-26.244-90.57-39.491-131.331-39.465
							c-22.96,0.03-45.813,4.241-67.915,8.313c-10.724,1.976-21.813,4.019-32.764,5.556c-56.745,7.936-116.087,2.326-171.606-16.225
							c-28.042-9.36-57.266-22.806-86.86-39.963c-27.283-15.818-53.854-33.923-76.841-52.357l0.626-0.78
							c22.948,18.403,49.476,36.479,76.717,52.272c29.535,17.124,58.696,30.542,86.674,39.88
							c55.376,18.502,114.56,24.099,171.151,16.183c10.929-1.534,22.008-3.575,32.722-5.549c22.145-4.08,45.043-8.299,68.094-8.33
							c0.088,0,0.179,0,0.266,0c40.843,0,85.102,13.32,131.56,39.595c9.386,5.302,19.04,11.187,29.515,17.99
							c15.808,10.272,31.459,21.325,46.595,32.015c12.149,8.581,24.713,17.453,37.313,25.892
							c89.834,60.059,198.272,108.674,313.592,140.59L1275.082,308.626z"/>
					</g>
					<g>
						<linearGradient id="SVGID_23_" gradientUnits="userSpaceOnUse" x1="281.5044" y1="121.3999" x2="1275.6494" y2="121.3999">
							<stop  offset="0" style="stop-color:#D7EDFD;stop-opacity:0"/>
							<stop  offset="0.9382" style="stop-color:#19ADFF"/>
						</linearGradient>
						<path fill="url(#SVGID_23_)" d="M1275.37,292.917c-118.524-34.593-224.087-80.689-313.756-137.008
							c-12.552-7.901-25.078-16.189-37.191-24.204c-15.43-10.209-31.385-20.767-47.457-30.563
							c-10.53-6.412-20.229-11.963-29.653-16.971C800.706,59.374,756.54,46.739,716.04,46.619c-0.209,0-0.421-0.001-0.631-0.001
							c-22.396,0-44.696,3.711-66.271,7.301c-10.947,1.822-22.267,3.706-33.438,5.075c-56.743,6.925-115.707,0.546-170.521-18.442
							c-27.098-9.376-55.331-22.537-86.312-40.235c-26.607-15.198-53.359-32.357-77.364-49.623l0.584-0.812
							c23.977,17.245,50.699,34.385,77.276,49.566c30.927,17.667,59.104,30.803,86.143,40.158
							c54.671,18.939,113.481,25.299,170.073,18.395c11.148-1.368,22.458-3.25,33.395-5.069c21.816-3.63,44.355-7.396,67.069-7.313
							c40.663,0.121,84.986,12.795,131.737,37.67c9.441,5.017,19.158,10.578,29.704,17c16.089,9.806,32.052,20.368,47.489,30.583
							c12.109,8.012,24.63,16.297,37.172,24.191c89.591,56.27,195.068,102.327,313.503,136.895L1275.37,292.917z"/>
					</g>
					<g>
						<linearGradient id="SVGID_24_" gradientUnits="userSpaceOnUse" x1="282.4854" y1="109.9248" x2="1275.9492" y2="109.9248">
							<stop  offset="0" style="stop-color:#D7EDFD;stop-opacity:0"/>
							<stop  offset="0.9382" style="stop-color:#19ADFF"/>
						</linearGradient>
						<path fill="url(#SVGID_24_)" d="M1275.656,277.208c-120.921-37.153-226.441-82-313.631-133.293
							c-12.451-7.346-24.894-15.034-36.926-22.47c-15.771-9.746-32.079-19.823-48.474-29.164
							c-10.6-6.033-20.361-11.261-29.844-15.984C799.977,52.946,755.83,40.955,715.57,40.656
							c-22.254-0.177-44.374,3.121-65.794,6.301c-11.201,1.664-22.785,3.384-34.207,4.581c-56.74,5.903-115.332-1.24-169.436-20.66
							c-25.892-9.28-53.144-22.151-85.763-40.505c-24.708-13.901-50.913-29.677-77.885-46.889l0.538-0.843
							c26.957,17.201,53.145,32.967,77.837,46.86c32.569,18.325,59.772,31.174,85.61,40.435
							c53.964,19.369,112.401,26.497,168.995,20.607c11.4-1.195,22.973-2.914,34.164-4.576c21.459-3.186,43.663-6.494,65.948-6.312
							c40.413,0.3,84.707,12.326,131.65,35.746c9.499,4.731,19.276,9.968,29.892,16.01c16.41,9.35,32.727,19.432,48.505,29.183
							c12.028,7.433,24.467,15.119,36.908,22.458c87.122,51.254,192.57,96.069,313.416,133.199L1275.656,277.208z"/>
					</g>
					<g>
						<linearGradient id="SVGID_25_" gradientUnits="userSpaceOnUse" x1="283.4688" y1="98.4507" x2="1276.249" y2="98.4507">
							<stop  offset="0" style="stop-color:#D7EDFD;stop-opacity:0"/>
							<stop  offset="0.9382" style="stop-color:#19ADFF"/>
						</linearGradient>
						<path fill="url(#SVGID_25_)" d="M1275.942,261.5c-128.447-41.479-228.065-82.653-313.503-129.579
							c-12.295-6.774-24.598-13.849-36.495-20.691c-16.167-9.297-32.885-18.911-49.658-27.81
							c-10.663-5.651-20.487-10.557-30.034-14.997c-47.664-22.214-90.564-33.247-131.151-33.729
							c-21.798-0.266-43.538,2.574-64.563,5.319c-11.497,1.5-23.387,3.053-35.101,4.069c-56.742,4.878-114.956-3.032-168.351-22.876
							c-31.015-11.508-60.482-27.07-85.215-40.775c-15.79-8.749-31.405-17.6-46.506-26.159
							c-11.247-6.375-21.871-12.396-31.896-17.997l0.487-0.873c10.029,5.602,20.654,11.624,31.902,18
							c15.099,8.558,30.712,17.408,46.498,26.154c24.701,13.687,54.126,29.227,85.079,40.712
							c53.258,19.793,111.323,27.681,167.917,22.818c11.692-1.015,23.57-2.565,35.058-4.065c21.06-2.749,42.839-5.581,64.703-5.327
							c40.731,0.484,83.767,11.547,131.562,33.822c9.563,4.448,19.402,9.361,30.081,15.02c16.788,8.907,33.514,18.525,49.688,27.827
							c11.894,6.839,24.191,13.912,36.478,20.682c85.381,46.894,184.943,88.044,313.328,129.503L1275.942,261.5z"/>
					</g>
					<g>
						<linearGradient id="SVGID_26_" gradientUnits="userSpaceOnUse" x1="284.4541" y1="86.9766" x2="1276.5498" y2="86.9766">
							<stop  offset="0" style="stop-color:#D7EDFD;stop-opacity:0"/>
							<stop  offset="0.9382" style="stop-color:#19ADFF"/>
						</linearGradient>
						<path fill="url(#SVGID_26_)" d="M1276.229,245.79c-98.416-33.352-212.611-74.388-313.378-125.864
							c-12.071-6.19-24.166-12.637-35.863-18.871c-16.629-8.863-33.824-18.028-51.041-26.498
							c-10.727-5.271-20.613-9.854-30.225-14.01C797.861,39.8,754.98,29.393,714.63,28.732c-21.339-0.354-42.612,2.041-63.197,4.357
							c-11.837,1.332-24.077,2.709-36.127,3.537c-56.743,3.846-114.583-4.833-167.265-25.093
							c-29.363-11.273-57.927-26.458-84.667-41.046c-29.486-16.084-55.777-30.304-78.919-41.423l0.433-0.901
							c23.164,11.13,49.467,25.355,78.965,41.446c26.711,14.572,55.241,29.739,84.547,40.99
							c52.549,20.208,110.238,28.866,166.838,25.029c12.028-0.826,24.257-2.202,36.083-3.533c20.616-2.32,41.932-4.716,63.326-4.364
							c40.484,0.663,83.49,11.097,131.474,31.897c9.626,4.164,19.527,8.753,30.269,14.031c17.231,8.477,34.434,17.646,51.069,26.512
							c11.694,6.233,23.786,12.678,35.85,18.864c100.709,51.446,214.86,92.466,313.242,125.807L1276.229,245.79z"/>
					</g>
					<g>
						<linearGradient id="SVGID_27_" gradientUnits="userSpaceOnUse" x1="285.4409" y1="75.5024" x2="1276.8496" y2="75.5024">
							<stop  offset="0" style="stop-color:#D7EDFD;stop-opacity:0"/>
							<stop  offset="0.9382" style="stop-color:#19ADFF"/>
						</linearGradient>
						<path fill="url(#SVGID_27_)" d="M1276.516,230.081l-17.827-6.327c-99.483-35.294-202.354-71.79-295.423-115.822
							c-11.759-5.587-23.558-11.389-34.968-17c-17.178-8.447-34.939-17.181-52.689-25.237c-10.788-4.89-20.737-9.149-30.415-13.023
							C797.141,33.39,754.279,23.609,714.159,22.77c-20.791-0.443-41.569,1.523-61.657,3.422
							c-12.234,1.156-24.886,2.352-37.328,2.979c-56.748,2.799-114.211-6.643-166.181-27.311
							c-27.652-10.979-54.468-25.386-80.402-39.32l-3.716-1.996c-21.336-11.455-52.783-27.929-79.434-38.692l0.375-0.927
							c26.696,10.781,58.176,27.272,79.532,38.738l3.717,1.996c25.909,13.92,52.7,28.314,80.298,39.271
							c51.838,20.617,109.159,30.036,165.76,27.242c12.421-0.625,25.062-1.82,37.284-2.976c20.116-1.901,40.921-3.866,61.773-3.426
							c40.242,0.842,83.219,10.647,131.385,29.974c9.691,3.879,19.653,8.145,30.456,13.041c17.765,8.063,35.533,16.8,52.718,25.25
							c11.407,5.609,23.203,11.41,34.955,16.994c93.022,44.01,195.868,80.498,295.328,115.783l17.827,6.327L1276.516,230.081z"/>
					</g>
					<g>
						<linearGradient id="SVGID_28_" gradientUnits="userSpaceOnUse" x1="286.4302" y1="64.0293" x2="1277.1504" y2="64.0293">
							<stop  offset="0" style="stop-color:#D7EDFD;stop-opacity:0"/>
							<stop  offset="0.9382" style="stop-color:#19ADFF"/>
						</linearGradient>
						<path fill="url(#SVGID_28_)" d="M1276.803,214.371c-30.313-11.269-61.435-22.469-91.53-33.3
							c-74.166-26.691-150.856-54.292-221.594-85.134c-11.324-4.961-22.703-10.097-33.707-15.063
							c-17.845-8.053-36.297-16.38-54.7-24.042c-10.853-4.511-20.864-8.448-30.607-12.036
							c-48.24-17.817-91.082-26.972-130.975-27.989c-20.197-0.52-40.387,1.025-59.911,2.518c-12.7,0.972-25.833,1.976-38.737,2.388
							C558.286,23.47,501.2,13.255,449.947-7.814c-24.026-9.858-47.468-22.357-70.138-34.445c-4.477-2.387-8.953-4.773-13.433-7.141
							c-32.65-17.25-58.8-29.013-79.946-35.962l0.313-0.95c21.199,6.967,47.401,18.752,80.101,36.028
							c4.481,2.367,8.958,4.754,13.437,7.142c22.648,12.076,46.067,24.563,70.047,34.403
							c51.125,21.016,108.071,31.203,164.683,29.453c12.882-0.411,26.003-1.415,38.692-2.385
							c19.549-1.496,39.764-3.041,60.013-2.521c40.004,1.02,82.951,10.195,131.295,28.05c9.756,3.593,19.78,7.535,30.646,12.051
							c18.417,7.668,36.876,15.998,54.728,24.054c11.002,4.965,22.378,10.099,33.696,15.058
							c70.707,30.829,147.382,58.424,221.531,85.11c30.099,10.832,61.223,22.033,91.54,33.304L1276.803,214.371z"/>
					</g>
					<g>
						<linearGradient id="SVGID_29_" gradientUnits="userSpaceOnUse" x1="287.4209" y1="52.5576" x2="1277.4502" y2="52.5576">
							<stop  offset="0" style="stop-color:#D7EDFD;stop-opacity:0"/>
							<stop  offset="0.9382" style="stop-color:#19ADFF"/>
						</linearGradient>
						<path fill="url(#SVGID_29_)" d="M1277.088,198.662c-49.016-19.05-99.736-36.959-148.787-54.278
							c-54.66-19.3-111.183-39.257-164.207-60.443c-10.729-4.309-21.524-8.752-31.965-13.05
							c-18.672-7.685-37.978-15.632-57.195-22.921c-10.922-4.134-20.996-7.749-30.798-11.049
							c-48.419-16.351-91.242-24.88-130.917-26.075c-19.509-0.591-39.025,0.55-57.902,1.655
							c-13.252,0.776-26.956,1.578-40.407,1.757C557.334,14.963,502.159,4.28,450.9-17.488
							c-21.161-8.969-41.899-20.025-61.954-30.718c-6.896-3.677-14.028-7.479-21.068-11.138
							c-31.895-16.576-58.964-27.758-80.458-33.235l0.247-0.969c21.567,5.496,48.709,16.705,80.671,33.316
							c7.045,3.662,14.179,7.465,21.077,11.143c20.036,10.682,40.754,21.728,61.875,30.68
							c51.13,21.713,106.184,32.383,163.604,31.666c13.429-0.178,27.121-0.98,40.363-1.755c18.896-1.107,38.438-2.25,57.99-1.657
							c39.775,1.198,82.693,9.744,131.206,26.127c9.813,3.304,19.899,6.922,30.833,11.061c19.23,7.294,38.544,15.244,57.221,22.932
							c10.438,4.297,21.233,8.74,31.957,13.047c53.005,21.179,109.517,41.132,164.168,60.429
							c49.059,17.321,99.786,35.233,148.816,54.289L1277.088,198.662z"/>
					</g>
					<g>
						<linearGradient id="SVGID_30_" gradientUnits="userSpaceOnUse" x1="288.4126" y1="41.0864" x2="1277.751" y2="41.0864">
							<stop  offset="0" style="stop-color:#D7EDFD;stop-opacity:0"/>
							<stop  offset="0.9382" style="stop-color:#19ADFF"/>
						</linearGradient>
						<path fill="url(#SVGID_30_)" d="M1277.374,182.952c-63.898-25.937-130.613-48.465-195.132-70.251
							c-39.01-13.173-79.347-26.794-117.734-40.756c-9.87-3.61-19.818-7.318-29.438-10.904
							c-19.755-7.364-40.182-14.979-60.473-21.934c-10.974-3.754-21.11-7.045-30.989-10.062
							c-48.585-14.885-91.39-22.789-130.859-24.162c-18.71-0.654-37.446,0.107-55.565,0.845c-13.913,0.566-28.3,1.157-42.406,1.074
							C557.2,6.422,502.385-5.004,451.854-27.161c-18.837-8.245-37.362-18.173-55.276-27.775
							c-8.89-4.765-18.082-9.691-27.198-14.351c-31.778-16.243-59.02-26.507-80.967-30.509l0.18-0.983
							c22.043,4.019,49.377,14.315,81.243,30.602c9.125,4.664,18.321,9.593,27.215,14.36c17.897,9.593,36.404,19.512,55.206,27.741
							c50.405,22.102,105.087,33.5,162.527,33.877c14.081,0.079,28.458-0.507,42.359-1.073c18.14-0.738,36.896-1.501,55.642-0.845
							c39.559,1.375,82.447,9.293,131.116,24.205c9.89,3.02,20.037,6.314,31.021,10.072c20.304,6.96,40.737,14.577,60.498,21.943
							c9.619,3.585,19.565,7.293,29.432,10.902c38.376,13.958,78.708,27.577,117.711,40.748
							c64.532,21.792,131.262,44.325,195.189,70.272L1277.374,182.952z"/>
					</g>
					<g>
						<linearGradient id="SVGID_31_" gradientUnits="userSpaceOnUse" x1="289.4053" y1="29.6162" x2="1278.0518" y2="29.6162">
							<stop  offset="0" style="stop-color:#D7EDFD;stop-opacity:0"/>
							<stop  offset="0.9382" style="stop-color:#19ADFF"/>
						</linearGradient>
						<path fill="url(#SVGID_31_)" d="M1277.661,167.242c-76.007-32.188-156.184-57.514-233.721-82.007
							c-26.08-8.238-53.047-16.757-79.018-25.287c-8.633-2.853-17.217-5.727-25.778-8.593C917.934,44.254,896,36.911,874.26,30.242
							c-11.028-3.376-21.228-6.344-31.181-9.074C794.337,7.747,751.552,0.47,712.277-1.08c-17.763-0.705-35.572-0.296-52.797,0.1
							c-14.717,0.337-29.936,0.687-44.837,0.323c-57.584-1.469-112.034-13.641-161.836-36.178
							c-16.915-7.641-33.592-16.664-49.721-25.39c-10.506-5.685-21.371-11.562-32.205-17.006
							c-31.311-15.734-59.485-25.342-81.477-27.786l0.11-0.994c22.108,2.457,50.399,12.1,81.815,27.886
							c10.847,5.451,21.718,11.333,32.231,17.02c16.113,8.718,32.775,17.732,49.657,25.358c49.68,22.481,104,34.624,161.45,36.089
							c14.875,0.366,30.083,0.015,44.789-0.323c17.238-0.396,35.064-0.807,52.858-0.099c39.352,1.553,82.211,8.841,131.027,22.282
							c9.962,2.732,20.171,5.704,31.209,9.083c21.753,6.673,43.692,14.019,64.909,21.122c8.56,2.866,17.144,5.739,25.774,8.591
							c25.963,8.528,52.929,17.046,79.005,25.283c77.56,24.5,157.76,49.834,233.811,82.04L1277.661,167.242z"/>
					</g>
					<g>
						<linearGradient id="SVGID_32_" gradientUnits="userSpaceOnUse" x1="290.3979" y1="18.1475" x2="1278.3516" y2="18.1475">
							<stop  offset="0" style="stop-color:#D7EDFD;stop-opacity:0"/>
							<stop  offset="0.9382" style="stop-color:#19ADFF"/>
						</linearGradient>
						<path fill="url(#SVGID_32_)" d="M1277.947,151.532c-86.006-37.964-177.797-64.516-266.565-90.193
							c-15.149-4.382-30.814-8.913-46.044-13.387c-6.771-2.002-13.517-4.011-20.246-6.014c-23.283-6.933-47.36-14.102-71.169-20.561
							c-11.056-2.992-21.317-5.637-31.372-8.087C793.679,1.337,750.912-5.313,711.807-7.042c-16.631-0.739-33.325-0.646-49.47-0.557
							c-15.708,0.087-31.948,0.177-47.826-0.515c-57.596-2.569-111.68-15.487-160.75-38.395c-15.3-7.13-30.418-15.412-45.038-23.421
							c-11.83-6.48-24.063-13.181-36.338-19.245c-21.855-10.794-53.82-23.904-81.986-25.064l0.041-0.999
							c28.341,1.167,60.445,14.33,82.388,25.167c12.294,6.073,24.537,12.779,36.375,19.264c14.606,8.001,29.71,16.275,44.981,23.392
							c48.952,22.852,102.909,35.739,160.373,38.302c15.854,0.691,32.083,0.602,47.776,0.514c16.157-0.089,32.864-0.182,49.52,0.558
							c39.171,1.731,82.001,8.391,130.937,20.359c10.062,2.452,20.332,5.099,31.396,8.094c23.82,6.461,47.903,13.632,71.193,20.567
							c6.728,2.003,13.473,4.012,20.242,6.013c15.228,4.474,30.892,9.004,46.04,13.386c88.8,25.687,180.624,52.248,266.691,90.239
							L1277.947,151.532z"/>
					</g>
					<g>
						<linearGradient id="SVGID_33_" gradientUnits="userSpaceOnUse" x1="291.3628" y1="6.6616" x2="1278.6514" y2="6.6616">
							<stop  offset="0" style="stop-color:#D7EDFD;stop-opacity:0"/>
							<stop  offset="0.9382" style="stop-color:#19ADFF"/>
						</linearGradient>
						<path fill="url(#SVGID_33_)" d="M1278.233,135.822c-94.332-43.366-196.333-69.783-294.977-95.33
							c-5.85-1.515-11.686-3.026-17.505-4.538l-11.19-2.929c-26.516-6.944-53.935-14.125-80.975-20.513
							c-11.09-2.613-21.415-4.936-31.564-7.099c-48.967-10.484-91.714-16.509-130.686-18.417
							c-15.236-0.75-30.552-0.925-45.363-1.095c-16.954-0.194-34.486-0.396-51.595-1.471
							c-57.606-3.678-111.325-17.341-159.665-40.611c-13.923-6.692-27.706-14.355-41.035-21.766
							c-12.924-7.186-26.289-14.616-39.793-21.17c-21.898-10.626-53.985-23.121-82.496-22.346l-0.027-1
							c28.696-0.799,60.961,11.77,82.959,22.446c13.53,6.566,26.906,14.003,39.843,21.196c13.316,7.403,27.085,15.059,40.982,21.738
							c48.224,23.214,101.818,36.845,159.294,40.514c17.083,1.074,34.602,1.274,51.543,1.469c14.821,0.17,30.146,0.346,45.401,1.096
							c39.026,1.912,81.826,7.943,130.846,18.438c10.156,2.166,20.488,4.489,31.585,7.104c27.053,6.391,54.477,13.573,80.998,20.519
							l11.19,2.929c5.817,1.511,11.653,3.022,17.503,4.537c98.686,25.559,200.73,51.987,295.144,95.39L1278.233,135.822z"/>
					</g>
					<g>
						<linearGradient id="SVGID_34_" gradientUnits="userSpaceOnUse" x1="292.2871" y1="-4.9883" x2="1278.9521" y2="-4.9883">
							<stop  offset="0" style="stop-color:#D7EDFD;stop-opacity:0"/>
							<stop  offset="0.9382" style="stop-color:#19ADFF"/>
						</linearGradient>
						<path fill="url(#SVGID_34_)" d="M1278.521,120.112c-101.182-48.403-213.37-73.773-312.353-96.156
							c-33.042-7.523-62.839-14.244-92.917-20.31c-11.103-2.233-21.489-4.232-31.756-6.112
							c-48.998-9.012-91.728-14.409-130.629-16.501c-13.476-0.727-27.044-1.105-40.166-1.471
							c-18.564-0.517-37.76-1.052-56.454-2.591c-57.615-4.794-110.968-19.203-158.579-42.827
							c-12.736-6.311-25.363-13.449-37.573-20.353c-13.836-7.822-28.143-15.911-42.707-22.853
							c-21.958-10.466-54.186-22.364-83.005-19.63l-0.095-0.995c29.055-2.761,61.459,9.202,83.531,19.723
							c14.596,6.957,28.918,15.054,42.768,22.885c12.199,6.897,24.813,14.028,37.525,20.328
							c47.498,23.567,100.729,37.942,158.218,42.726c18.666,1.536,37.849,2.071,56.399,2.587
							c13.128,0.366,26.703,0.744,40.191,1.472c38.944,2.094,81.715,7.497,130.756,16.516c10.271,1.881,20.664,3.881,31.772,6.115
							c30.09,6.068,59.894,12.79,92.941,20.315c99.032,22.394,211.279,47.777,312.563,96.229L1278.521,120.112z"/>
					</g>
					<g>
						<linearGradient id="SVGID_35_" gradientUnits="userSpaceOnUse" x1="293.2124" y1="-16.7969" x2="1279.252" y2="-16.7969">
							<stop  offset="0" style="stop-color:#D7EDFD;stop-opacity:0"/>
							<stop  offset="0.9382" style="stop-color:#19ADFF"/>
						</linearGradient>
						<path fill="url(#SVGID_35_)" d="M1278.807,104.402c-97.48-48.492-207.693-72.258-312.224-92.444
							c-25.627-4.984-59.433-11.44-93.669-17.177c-10.907-1.823-21.655-3.546-31.947-5.124
							c-48.893-7.529-91.603-12.3-130.571-14.586c-11.175-0.657-22.448-1.145-33.352-1.615c-20.712-0.895-42.128-1.82-62.931-3.941
							C556.489-36.406,503.5-51.561,456.621-75.529c-11.707-5.978-23.326-12.667-34.563-19.137
							c-14.594-8.403-29.686-17.091-45.168-24.338c-31.139-14.573-60.802-20.58-83.518-16.915l-0.159-0.987
							c16.209-2.614,43.96-1.789,84.101,16.997c15.521,7.265,30.631,15.964,45.244,24.377c11.226,6.464,22.834,13.147,34.519,19.113
							c46.769,23.911,99.639,39.031,157.14,44.939c20.772,2.118,42.174,3.042,62.871,3.937c10.907,0.471,22.186,0.958,33.367,1.616
							c39.001,2.287,81.741,7.062,130.665,14.596c10.295,1.578,21.049,3.303,31.96,5.126c34.248,5.738,68.062,12.196,93.694,17.182
							c104.598,20.199,214.885,43.983,312.479,92.53L1278.807,104.402z"/>
					</g>
					<g>
						<linearGradient id="SVGID_36_" gradientUnits="userSpaceOnUse" x1="294.1396" y1="-28.7246" x2="1279.5518" y2="-28.7246">
							<stop  offset="0" style="stop-color:#D7EDFD;stop-opacity:0"/>
							<stop  offset="0.9382" style="stop-color:#19ADFF"/>
						</linearGradient>
						<path fill="url(#SVGID_36_)" d="M1279.093,88.691c-99.973-51.677-213.516-72.898-312.094-88.732
							c-33.864-5.478-64.749-10.072-94.421-14.045c-10.769-1.438-21.581-2.83-32.139-4.136
							c-48.418-6.021-91.109-10.166-130.514-12.669c-8.019-0.511-16.128-0.972-23.972-1.418
							c-23.714-1.349-48.234-2.744-71.974-5.633C556.345-45,503.722-60.901,457.574-85.203
							c-10.801-5.682-21.533-11.982-31.912-18.075c-15.23-8.941-30.98-18.187-47.27-25.67
							c-31.25-14.355-61.093-19.399-84.031-14.203l-0.221-0.976c23.154-5.244,53.222-0.175,84.669,14.27
							c16.336,7.505,32.107,16.763,47.359,25.717c10.369,6.087,21.091,12.381,31.872,18.052
							c46.041,24.245,98.547,40.109,156.062,47.152c23.707,2.886,48.212,4.279,71.91,5.627c7.844,0.446,15.955,0.908,23.977,1.418
							c39.426,2.505,82.137,6.651,130.574,12.675c10.561,1.307,21.376,2.699,32.148,4.137c29.681,3.974,60.575,8.569,94.447,14.049
							c98.654,15.847,212.29,37.087,312.394,88.831L1279.093,88.691z"/>
					</g>
					<g>
						<linearGradient id="SVGID_37_" gradientUnits="userSpaceOnUse" x1="295.0684" y1="-40.7822" x2="1279.8525" y2="-40.7822">
							<stop  offset="0" style="stop-color:#D7EDFD;stop-opacity:0"/>
							<stop  offset="0.9382" style="stop-color:#19ADFF"/>
						</linearGradient>
						<path fill="url(#SVGID_37_)" d="M1279.38,72.98c-96.657-51.882-207.06-71.524-311.966-85.021
							c-30.574-3.961-62.594-7.633-95.172-10.913c-10.433-1.047-21.311-2.106-32.33-3.147
							c-45.534-4.326-89.427-7.943-130.458-10.753c-3.419-0.235-6.833-0.465-10.242-0.696c-28.166-1.904-57.291-3.874-85.364-7.852
							c-57.644-8.202-109.901-24.848-155.321-49.476c-10-5.418-19.945-11.376-29.563-17.139
							c-15.765-9.444-32.065-19.211-49.07-26.875c-31.367-14.139-61.394-18.22-84.545-11.493l-0.279-0.96
							c23.381-6.793,53.653-2.694,85.236,11.541c17.058,7.688,33.384,17.47,49.173,26.93c9.609,5.757,19.545,11.709,29.526,17.117
							c45.314,24.571,97.459,41.179,154.985,49.364c28.036,3.974,55.848,5.854,85.291,7.844c3.41,0.23,6.824,0.461,10.243,0.696
							c41.04,2.81,84.941,6.428,130.483,10.755c11.022,1.041,21.901,2.101,32.336,3.148c32.588,3.281,64.617,6.954,95.2,10.917
							c105.001,13.509,215.511,33.172,312.311,85.131L1279.38,72.98z"/>
					</g>
					<g>
						<linearGradient id="SVGID_38_" gradientUnits="userSpaceOnUse" x1="295.9995" y1="-52.9346" x2="1280.1523" y2="-52.9346">
							<stop  offset="0" style="stop-color:#D7EDFD;stop-opacity:0"/>
							<stop  offset="0.9382" style="stop-color:#19ADFF"/>
						</linearGradient>
						<path fill="url(#SVGID_38_)" d="M1279.666,57.27c-97.729-54.442-212.479-71.654-311.836-81.31
							c-28.895-2.826-59.375-5.299-95.924-7.781c-10.782-0.73-21.624-1.445-32.522-2.16l-21.903-1.438
							c-35.543-2.33-72.297-4.739-108.497-7.398c-30.812-2.266-63.548-4.908-95.269-10.043
							c-57.652-9.356-109.544-26.748-154.234-51.691c-9.29-5.182-18.535-10.84-27.477-16.311
							c-16.209-9.919-32.971-20.176-50.608-27.973c-31.495-13.922-61.704-17.04-85.063-8.783L296-158.56
							c23.602-8.344,54.073-5.215,85.8,8.811c17.698,7.824,34.488,18.098,50.726,28.034c8.933,5.466,18.17,11.119,27.442,16.291
							c44.588,24.886,96.37,42.239,153.907,51.577c31.681,5.129,64.393,7.769,95.183,10.033
							c36.195,2.659,72.947,5.067,108.488,7.397l21.904,1.438c10.898,0.714,21.74,1.43,32.524,2.16
							c36.559,2.483,67.048,4.956,95.952,7.784c65.652,6.38,115.289,14.029,160.942,24.799
							c57.917,13.663,107.402,32.188,151.283,56.632L1279.666,57.27z"/>
					</g>
					<g>
						<linearGradient id="SVGID_39_" gradientUnits="userSpaceOnUse" x1="296.9321" y1="-65.1587" x2="1280.4531" y2="-65.1587">
							<stop  offset="0" style="stop-color:#D7EDFD;stop-opacity:0"/>
							<stop  offset="0.9382" style="stop-color:#19ADFF"/>
						</linearGradient>
						<path fill="url(#SVGID_39_)" d="M1279.953,41.559c-98.116-56.69-212.631-71.04-311.709-77.599
							c-34.449-2.292-68.201-3.636-96.674-4.649l-6.06-0.215c-8.853-0.313-17.739-0.628-26.654-0.957
							c-41.502-1.537-86.018-3.439-130.344-6.918c-38.416-3.017-67.693-6.575-94.931-11.539
							c-58.469-10.667-108.564-28.301-153.148-53.907c-8.653-4.969-17.272-10.359-25.607-15.572
							c-16.581-10.37-33.726-21.092-51.929-28.982c-42.671-18.493-71.936-11.745-85.582-6.074l-0.384-0.924
							c13.793-5.729,43.354-12.56,86.363,6.08c18.272,7.919,35.45,18.662,52.061,29.051c8.328,5.208,16.938,10.593,25.576,15.553
							c44.483,25.548,94.475,43.144,152.83,53.791c27.202,4.957,56.449,8.512,94.829,11.525
							c44.309,3.478,88.812,5.379,130.303,6.917c8.914,0.328,17.801,0.643,26.652,0.957l6.06,0.215
							c28.48,1.013,62.242,2.357,96.705,4.65c99.193,6.567,213.849,20.938,312.143,77.731L1279.953,41.559z"/>
					</g>
					<g>
						<linearGradient id="SVGID_40_" gradientUnits="userSpaceOnUse" x1="297.8672" y1="-77.4644" x2="1280.7529" y2="-77.4644">
							<stop  offset="0" style="stop-color:#D7EDFD;stop-opacity:0"/>
							<stop  offset="0.9382" style="stop-color:#19ADFF"/>
						</linearGradient>
						<path fill="url(#SVGID_40_)" d="M1280.239,25.848c-54.158-32.439-118.583-53.555-196.955-64.555
							c-68.092-9.557-139.158-10.585-212.051-10.85c-76.142-0.276-144.663-1.26-212.189-10.529
							c-78.587-10.788-143.242-31.661-197.657-63.812c-8.083-4.776-16.138-9.927-23.928-14.909
							c-16.887-10.799-34.349-21.966-53.059-29.913c-42.854-18.202-72.339-9.922-86.103-3.367l-0.43-0.902
							c13.913-6.628,43.708-15.007,86.923,3.348c18.788,7.98,36.285,19.17,53.207,29.992c7.783,4.977,15.831,10.124,23.898,14.89
							c54.298,32.082,118.831,52.913,197.284,63.683c67.466,9.261,135.952,10.244,212.058,10.52
							c72.928,0.265,144.032,1.294,212.186,10.86c78.508,11.019,143.055,32.179,197.33,64.688L1280.239,25.848z"/>
					</g>
				</g>
			</g>
		</g>
	</g>
</g>
</svg>
